<svg xmlns="http://www.w3.org/2000/svg" viewBox="0 0 76 17" role="img">
  <title>Akima</title>
  <path fill="#001742" d="M67.804 7.839 67.162 5.672 73.185 9.148 70.115 0H65.26L62.63 7.839zm5.631 1.309H68.419 62.38l-2.565 7.741h4.047l1.03-3.494h5.931l1.03 3.494H76zm-19.954 0 .85 7.741h4.076l-.841-7.741zM42.989 7.74l.159-2.435.122.444c.081.311.252.868.513 1.67l.092.322h3.273a55.083 55.083 0 0 0-.653-1.747L44.2 0h-4.13l-.662 7.74zm9.413 0 .659-2.433.248 2.434H57L56.217 0h-4.04l-2.272 5.994c-.239.63-.454 1.211-.646 1.747zm-13.06 1.408-.638 7.741h3.736l.486-7.741zm9.446 0c-.264.81-.46 1.484-.584 2.018l-.12-.506c-.073-.311-.219-.815-.438-1.512h-3.313l2.155 7.74h3.523l2.063-7.74zM33.074 0h3.519v7.741h-3.519zm0 9.148h3.519v7.741h-3.519zM26.474 7.741 31.667 0h-4.6l-4.9 7.448V0h-3.871v7.741zm-8.178 1.407v7.741h3.745V9.273l4.933 7.616h4.693l-5.271-7.741zM12.667 7.741 10.105 0H5.378L2.815 7.741zM2.565 9.148 0 16.889h4.046l1.031-3.494h5.93l1.031 3.494h4.147L13.62 9.148z"/>
</svg>
