<svg xmlns="http://www.w3.org/2000/svg" viewBox="0 0 220 38" fill="#002c73">
  <g id="BJC Logo">
    <path id="Vector" d="M19.5789 13.9699C19.5789 11.2522 17.9393 10.251 16.2997 10.251C14.66 10.251 15.0941 10.4417 14.9012 10.6324C14.66 10.8708 14.6118 11.2999 14.6118 11.9197V17.6412H15.287C18.2287 17.6412 19.5307 16.4969 19.5307 13.9699H19.5789Z" fill="#002c73"></path>
    <path id="Vector_2" d="M48.562 0H0V25.0314C0 32.3262 5.78694 38 13.1171 38H61.6791V12.9686C61.6791 5.67378 55.8922 0 48.562 0ZM22.1833 27.2723C20.6401 28.1305 18.2771 28.5596 15.7212 28.5596H8.14993V27.463C10.2718 27.2246 10.5612 26.9862 10.5612 24.5069V12.9686C10.5612 10.4893 10.32 10.2033 8.34283 10.0125V8.91594H17.0715C19.4345 8.91594 20.9294 9.20201 22.135 9.96487C23.2442 10.6801 23.9676 11.9197 23.9676 13.3977C23.9676 16.2585 21.4117 17.4504 19.2416 17.8795V17.9749C22.8102 18.404 25.1249 19.7867 25.1249 22.6474C25.1249 25.5082 24.0158 26.2233 22.2797 27.1769L22.1833 27.2723ZM32.1657 13.0163V22.9812C32.1657 26.5094 31.8764 29.3701 29.0311 31.6587C27.7773 32.7077 26.5235 33.2321 25.2696 33.5182L24.7874 32.4216C26.427 31.7541 27.3433 30.6575 27.6326 28.7503C27.922 27.0816 27.9702 25.1267 27.9702 22.8858V13.0163C27.9702 10.4417 27.6808 10.2509 25.3661 10.0602V9.01129H34.5287V10.0602C32.4068 10.2986 32.1175 10.4893 32.1175 13.0163H32.1657ZM51.986 28.2735C51.1662 28.4642 48.4174 29.0841 46.2955 29.0841C38.1938 29.0841 34.7698 23.8394 34.7698 19.0715C34.7698 14.3036 39.5923 8.58218 46.8742 8.58218C54.1561 8.58218 51.6002 9.24969 52.42 9.39272C52.7093 11.0615 52.9022 12.4442 53.0951 14.3513L51.986 14.5897C50.9733 11.0138 48.6103 9.91719 46.2955 9.91719C41.8588 9.91719 39.4476 14.0176 39.4476 18.4994C39.4476 22.9812 42.4375 27.7014 46.6331 27.7014C50.8286 27.7014 51.0697 26.0803 52.6129 23.0289L53.6738 23.5056C53.288 24.936 52.4682 27.2246 51.986 28.3212V28.2735Z" fill="#002c73"></path>
    <path id="Vector_3" d="M15.1909 18.785H14.564V24.4588C14.564 26.6997 15.1909 27.3195 16.7823 27.2718C18.4701 27.2718 20.3991 26.0322 20.3991 23.0284C20.3991 20.0246 18.6148 18.7373 15.1427 18.7373L15.1909 18.785Z" fill="#002c73"></path>
    <path id="Vector_4" d="M81.6924 9.91727L82.5123 10.0126C83.8143 10.2033 83.8143 10.4417 83.8143 13.3978V17.5459H75.0857V13.3501C75.0857 10.4417 75.0857 10.2033 76.3878 10.0126L77.2076 9.91727V8.91602H68.8647V9.91727L69.6846 10.0126C70.9866 10.2033 70.9866 10.4417 70.9866 13.3978V24.1256C70.9866 27.034 70.9866 27.2724 69.6846 27.4631L68.8647 27.5584V28.5597H77.2076V27.5584L76.3878 27.4631C75.0857 27.2724 75.0857 27.034 75.0857 24.1256V19.1193H83.8143V24.1256C83.8143 27.0816 83.8143 27.32 82.5123 27.5107L81.6924 27.6061V28.6074H90.0353V27.6061L89.2637 27.5107C87.9134 27.32 87.9134 27.0816 87.9134 24.1256V13.3978C87.9134 10.4417 87.9134 10.2033 89.2155 10.0126L89.9871 9.91727V8.91602H81.6442V9.91727H81.6924Z" fill="#002c73"></path>
    <path id="Vector_5" d="M103.683 19.5004V19.4051C103.393 17.927 102.718 14.4941 97.6548 14.4941C92.5912 14.4941 90.7104 17.1165 90.7104 21.932C90.7104 26.7476 94.2791 28.9885 97.7994 28.9885C101.32 28.9885 102.429 27.9396 103.538 27.0813H103.635C103.635 27.0337 103.249 26.1278 103.249 26.1278L103.104 26.2231C102.67 26.4615 101.465 27.0337 99.9213 27.0337C95.774 27.0337 95.0024 23.6008 94.7613 22.3135C98.4264 21.4552 101.416 20.5493 103.635 19.5004H103.731H103.683ZM94.5684 20.7401C94.5684 19.4051 94.8095 15.8768 97.0279 15.8768C99.2462 15.8768 99.7284 18.3561 99.8731 19.5481C98.3299 20.0249 96.6421 20.4063 94.5684 20.7401Z" fill="#002c73"></path>
    <path id="Vector_6" d="M118.729 27.7012H118.536C116.752 27.7012 116.752 25.6987 116.752 23.5054V19.8818C116.752 16.4013 116.028 14.4941 112.219 14.4941C108.409 14.4941 107.685 15.5431 105.708 17.6409V17.7363C105.949 18.4515 106.094 18.6899 106.528 19.262H106.962V19.1667C107.396 18.2608 108.216 16.3536 110.434 16.3536C112.653 16.3536 112.894 17.3549 112.894 19.5481V20.1679C112.701 20.1679 112.556 20.2633 112.363 20.311C109.663 20.9785 105.178 22.1227 105.178 25.6033C105.178 29.0839 106.817 28.9408 109.18 28.9408C111.543 28.9408 112.46 28.0826 113.279 27.5105C113.713 28.178 114.34 28.9408 116.221 28.9408C118.102 28.9408 118.343 28.464 118.729 28.2256L118.922 28.1303L118.777 27.5105H118.632L118.729 27.7012ZM112.99 26.4615C112.701 26.6999 112.219 27.0813 111.35 27.0813C110.482 27.0813 109.277 26.1278 109.277 24.7451C109.277 22.6949 111.013 21.789 112.749 21.789C114.485 21.789 112.845 21.789 112.894 21.789H112.942V24.8881C112.942 25.3649 112.99 25.9847 113.038 26.3185V26.4138L112.99 26.4615Z" fill="#002c73"></path>
    <path id="Vector_7" d="M125.48 25.6507V7.15137H125.384C123.792 7.15137 122.49 7.2944 119.934 7.81887H119.838V8.82013H120.802C121.67 8.82013 121.719 9.7737 121.719 12.4437V25.6984C121.719 27.2241 121.574 27.4625 120.609 27.5579H119.886V28.6068H127.409V27.6056H126.686C125.721 27.4149 125.577 27.2241 125.577 25.6984L125.48 25.6507Z" fill="#002c73"></path>
    <path id="Vector_8" d="M137.44 26.8434C137.054 26.9387 136.668 27.0818 135.945 27.0818C133.533 27.0818 133.533 24.9362 133.533 21.9801V16.5448C134.546 16.5448 135.607 16.4494 136.668 16.3064H136.764V15.3051H136.668C136.234 15.2098 135.221 15.1621 134.45 15.0667C134.112 15.0667 133.775 15.019 133.533 14.9714C133.533 14.0178 133.823 11.9676 133.871 11.4908V11.3954L133.389 11.1094H133.341C131.894 11.9676 130.978 12.6828 129.772 13.684V14.9237C129.483 14.9714 129.145 15.019 128.807 15.019C128.373 15.0667 127.939 15.1144 127.602 15.1621H127.505V16.1156H127.602C127.988 16.211 128.518 16.2587 129 16.3064C129.241 16.3064 129.531 16.354 129.772 16.4017V23.6966C129.772 25.7468 129.772 28.8936 133.341 28.8936C136.909 28.8936 137.006 28.083 137.681 27.7493L137.874 27.6539L137.633 26.7003H137.536L137.44 26.8434Z" fill="#002c73"></path>
    <path id="Vector_9" d="M153.45 25.6507V20.5491C153.45 18.5943 153.45 14.4939 148.724 14.4939C143.998 14.4939 145.011 15.3521 144.143 16.0673V7.15137H144.046C142.455 7.15137 141.153 7.34208 138.597 7.81887H138.5V8.82013H139.465C140.333 8.82013 140.333 9.72602 140.333 12.396V25.6984C140.333 27.2241 140.188 27.4149 139.224 27.5579H138.5V28.6068H146.023V27.6056H145.3C144.336 27.4149 144.191 27.1765 144.191 25.6984V17.593C144.239 17.593 144.287 17.4977 144.336 17.45C144.818 17.0686 145.589 16.4487 146.699 16.4487C148.628 16.4487 149.689 17.7361 149.689 20.0246V25.6507C149.689 27.1765 149.544 27.3672 148.579 27.5102H147.856V28.5591H155.379V27.5579H154.656C153.691 27.3672 153.547 27.1288 153.547 25.6507H153.45Z" fill="#002c73"></path>
    <path id="Vector_10" d="M173.753 22.314C173.512 23.5536 172.306 27.654 167.676 27.654C163.047 27.654 160.925 20.5499 160.925 18.4043C160.925 13.2073 163.529 9.82214 167.58 9.82214C171.631 9.82214 172.885 13.4457 173.174 14.7807V14.9714L174.524 14.7807V14.6854C174.524 12.1107 174.283 11.0141 174.09 10.1559C174.09 10.0605 174.09 9.9175 173.994 9.82214C173.994 9.77446 173.946 9.72678 173.946 9.72678C172.74 9.10696 170.908 8.43945 167.676 8.43945C162.034 8.43945 156.344 11.6339 156.344 18.7858C156.344 25.9376 164.204 28.989 167.58 28.989C170.956 28.989 172.692 28.2738 173.849 27.797V27.7494C174.573 26.176 174.862 24.1735 175.007 22.457V22.3617L173.705 22.1233V22.2663L173.753 22.314Z" fill="#002c73"></path>
    <path id="Vector_11" d="M189.86 27.7012H189.667C187.882 27.7012 187.882 25.6987 187.882 23.5054V19.8818C187.882 16.4013 187.159 14.4941 183.349 14.4941C179.54 14.4941 178.816 15.5431 176.839 17.6409V17.7363C177.08 18.4515 177.225 18.6899 177.659 19.262H178.093V19.1667C178.527 18.2608 179.347 16.3536 181.565 16.3536C183.783 16.3536 184.025 17.3549 184.025 19.5481V20.1679C183.88 20.1679 183.687 20.2633 183.494 20.311C180.793 20.9785 176.309 22.1227 176.309 25.6033C176.309 29.0839 177.948 28.9408 180.311 28.9408C182.674 28.9408 183.59 28.0826 184.41 27.5105C184.844 28.178 185.471 28.9408 187.352 28.9408C189.233 28.9408 189.474 28.464 189.86 28.2256L190.053 28.1303L189.908 27.5105H189.763L189.86 27.7012ZM184.169 26.4615C183.88 26.6999 183.398 27.0813 182.53 27.0813C181.662 27.0813 180.456 26.1278 180.456 24.7451C180.456 22.6949 182.192 21.789 183.928 21.789C185.664 21.789 184.025 21.789 184.073 21.789H184.121V24.8881C184.121 25.3649 184.169 25.9847 184.217 26.3185V26.4138L184.169 26.4615Z" fill="#002c73"></path>
    <path id="Vector_12" d="M202.157 15.7815C201.723 15.3047 200.951 14.4941 199.697 14.4941C198.444 14.4941 197.141 15.6384 196.466 16.3536C196.466 15.7815 196.37 15.3047 196.273 14.8756C196.273 14.7802 196.273 14.6849 196.225 14.5895V14.4941H196.081C193.91 14.8279 193.332 15.0186 191.065 15.7815H190.969V16.8304H191.162C191.355 16.6874 191.644 16.592 192.03 16.592C192.801 16.592 192.801 17.8317 192.801 18.8329V25.651C192.801 27.1767 192.657 27.4151 191.692 27.5105H190.969V28.5594H199.07V27.5581L197.768 27.4151C196.611 27.2721 196.611 26.986 196.611 24.9358V17.8317C196.997 17.4025 197.286 17.3072 197.672 17.3072C198.058 17.3072 198.733 17.5933 199.312 17.8317C199.697 17.9747 200.035 18.1177 200.228 18.1654H200.276C201.241 17.4979 201.675 16.9734 202.109 16.0199C202.109 15.9722 202.012 15.8291 202.012 15.8291L202.157 15.7815Z" fill="#002c73"></path>
    <path id="Vector_13" d="M215.177 19.5004V19.4051C214.888 17.927 214.213 14.4941 209.149 14.4941C204.086 14.4941 202.205 17.1165 202.205 21.932C202.205 26.7476 205.774 28.9885 209.294 28.9885C212.814 28.9885 213.924 27.9396 215.033 27.0813H215.129C215.129 27.0337 214.743 26.1278 214.743 26.1278L214.599 26.2231C214.165 26.4615 212.959 27.0337 211.416 27.0337C207.269 27.0337 206.497 23.6008 206.256 22.3135C209.921 21.4552 212.911 20.5493 215.129 19.5004H215.226H215.177ZM206.015 20.7401C206.015 19.4051 206.256 15.8768 208.474 15.8768C210.693 15.8768 211.175 18.3561 211.32 19.5481C209.776 20.0249 208.088 20.4063 206.015 20.7401Z" fill="#002c73"></path>
    <path id="Vector_14" d="M217.106 27.177H217.589V28.5597H217.782V27.177H218.264V26.9863H217.106V27.177Z" fill="#002c73"></path>
    <path id="Vector_15" d="M219.663 26.9863L219.373 27.8445L219.277 28.1783L219.18 27.8445L218.891 26.9863H218.65V28.5597H218.843V27.2247L218.987 27.5585L219.277 28.369H219.373L219.663 27.5585L219.807 27.2247V28.5597H220V26.9863H219.663Z" fill="#002c73"></path>
  </g>
</svg>
